<?xml version="1.0" encoding="UTF-8"?>
<svg width="60px" height="50px" viewBox="0 0 60 50" version="1.1" xmlns="http://www.w3.org/2000/svg" xmlns:xlink="http://www.w3.org/1999/xlink">
    <!-- Generator: Sketch 55.2 (78181) - https://sketchapp.com -->
    <title>Path Copy 2</title>
    <desc>Created with Sketch.</desc>
    <g id="design" stroke="none" stroke-width="1" fill="none" fill-rule="evenodd">
        <g id="EYELEVEL-FOR-ENTERPRISE-design-v1" transform="translate(-1147.000000, -1004.000000)" fill="#FFFFFF" fill-rule="nonzero">
            <g id="Group-11" transform="translate(1047.000000, 862.000000)">
                <path d="M156.627318,162.212679 L156.720976,162.233166 L116.571717,162.233166 L129.193177,149.583901 C129.811226,148.96634 130.15025,148.129755 130.15025,147.251706 C130.15025,146.373658 129.811226,145.542926 129.193177,144.923902 L127.229275,142.959024 C126.611715,142.341463 125.788788,142 124.911227,142 C124.033179,142 123.209764,142.339024 122.592203,142.956585 L100.956598,164.590239 C100.336598,165.210239 99.997574,166.036092 100,166.914629 C99.997574,167.798043 100.336598,168.624384 100.956598,169.243409 L122.592203,190.879014 C123.209764,191.496087 124.032691,191.835599 124.911227,191.835599 C125.788788,191.835599 126.611715,191.495599 127.229275,190.879014 L129.193177,188.914136 C129.811226,188.297551 130.15025,187.474136 130.15025,186.596088 C130.15025,185.718527 129.811226,184.938527 129.193177,184.321454 L116.429278,171.601457 L156.672196,171.601457 C158.480488,171.601457 160,170.042921 160,168.235604 L160,165.45658 C160,163.649264 158.43561,162.212679 156.627318,162.212679 Z" id="Path-Copy-2" transform="translate(130.000000, 166.917799) scale(-1, 1) translate(-130.000000, -166.917799) "></path>
            </g>
        </g>
    </g>
</svg>