<?xml version="1.0" encoding="UTF-8"?>
<svg width="289px" height="20px" viewBox="0 0 289 20" version="1.1" xmlns="http://www.w3.org/2000/svg" xmlns:xlink="http://www.w3.org/1999/xlink">
    <!-- Generator: Sketch 55.2 (78181) - https://sketchapp.com -->
    <title>Group 7</title>
    <desc>Created with Sketch.</desc>
    <g id="design" stroke="none" stroke-width="1" fill="none" fill-rule="evenodd">
        <g id="EYELEVEL-FOR-ENTERPRISE-design-v1" transform="translate(-643.000000, -2321.000000)">
            <g id="Group-7" transform="translate(643.000000, 2321.000000)">
                <path d="M18.09,14.202 C17.8199987,14.8140031 17.4645022,15.4124971 17.0235,15.9975 C16.5824978,16.5825029 16.0335033,17.1044977 15.3765,17.5635 C14.7194967,18.0225023 13.9410045,18.3914986 13.041,18.6705 C12.1409955,18.9495014 11.0970059,19.089 9.909,19.089 C8.50499298,19.089 7.19550608,18.8505024 5.9805,18.3735 C4.76549393,17.8964976 3.71700441,17.2350042 2.835,16.389 C1.95299559,15.5429958 1.26000252,14.5395058 0.756,13.3785 C0.25199748,12.2174942 1.13686838e-13,10.9440069 1.13686838e-13,9.558 C1.13686838e-13,8.17199307 0.25199748,6.89400585 0.756,5.724 C1.26000252,4.55399415 1.95299559,3.54600423 2.835,2.7 C3.71700441,1.85399577 4.76549393,1.19250239 5.9805,0.7155 C7.19550608,0.238497615 8.50499298,0 9.909,0 C11.0970059,0 12.1364955,0.139498605 13.0275,0.4185 C13.9185045,0.697501395 14.6969967,1.0664977 15.363,1.5255 C16.0290033,1.98450229 16.5824978,2.50649707 17.0235,3.0915 C17.4645022,3.67650293 17.8199987,4.26599703 18.09,4.86 L13.608,6.993 C13.2839984,6.18299595 12.8025032,5.54850229 12.1635,5.0895 C11.5244968,4.6304977 10.7730043,4.401 9.909,4.401 C9.31499703,4.401 8.75700261,4.51349887 8.235,4.7385 C7.71299739,4.96350112 7.24950203,5.29199784 6.8445,5.724 C6.43949798,6.15600216 6.12000117,6.6914968 5.886,7.3305 C5.65199883,7.9695032 5.535,8.71199577 5.535,9.558 C5.535,10.4040042 5.65199883,11.1464968 5.886,11.7855 C6.12000117,12.4245032 6.43949798,12.9599978 6.8445,13.392 C7.24950203,13.8240022 7.71299739,14.1479989 8.235,14.364 C8.75700261,14.5800011 9.31499703,14.688 9.909,14.688 C10.7730043,14.688 11.5244968,14.4630022 12.1635,14.013 C12.8025032,13.5629978 13.2839984,12.9330041 13.608,12.123 L18.09,14.202 Z M39.096,9.558 C39.096,10.9440069 38.8440025,12.2174942 38.34,13.3785 C37.8359975,14.5395058 37.1430044,15.5429958 36.261,16.389 C35.3789956,17.2350042 34.339506,17.8964976 33.1425,18.3735 C31.945494,18.8505024 30.6540069,19.089 29.268,19.089 C27.863993,19.089 26.563506,18.8505024 25.3665,18.3735 C24.169494,17.8964976 23.1300044,17.2350042 22.248,16.389 C21.3659956,15.5429958 20.6730025,14.5395058 20.169,13.3785 C19.6649975,12.2174942 19.413,10.9440069 19.413,9.558 C19.413,8.17199307 19.6649975,6.89400585 20.169,5.724 C20.6730025,4.55399415 21.3659956,3.54600423 22.248,2.7 C23.1300044,1.85399577 24.169494,1.19250239 25.3665,0.7155 C26.563506,0.238497615 27.863993,0 29.268,0 C30.6540069,0 31.945494,0.238497615 33.1425,0.7155 C34.339506,1.19250239 35.3789956,1.85399577 36.261,2.7 C37.1430044,3.54600423 37.8359975,4.55399415 38.34,5.724 C38.8440025,6.89400585 39.096,8.17199307 39.096,9.558 Z M33.561,9.558 C33.561,8.87399658 33.4710009,8.22150311 33.291,7.6005 C33.1109991,6.9794969 32.8455018,6.43050238 32.4945,5.9535 C32.1434982,5.47649761 31.6980027,5.09850139 31.158,4.8195 C30.6179973,4.5404986 29.9880036,4.401 29.268,4.401 C28.5299963,4.401 27.8910027,4.5404986 27.351,4.8195 C26.8109973,5.09850139 26.3610018,5.47649761 26.001,5.9535 C25.6409982,6.43050238 25.3755009,6.9794969 25.2045,7.6005 C25.0334991,8.22150311 24.948,8.87399658 24.948,9.558 C24.948,10.2420034 25.0334991,10.8944969 25.2045,11.5155 C25.3755009,12.1365031 25.6409982,12.6809977 26.001,13.149 C26.3610018,13.6170023 26.8109973,13.9904986 27.351,14.2695 C27.8910027,14.5485014 28.5299963,14.688 29.268,14.688 C29.9880036,14.688 30.6179973,14.5485014 31.158,14.2695 C31.6980027,13.9904986 32.1434982,13.6170023 32.4945,13.149 C32.8455018,12.6809977 33.1109991,12.1365031 33.291,11.5155 C33.4710009,10.8944969 33.561,10.2420034 33.561,9.558 Z M58.86,18.549 L53.622,18.549 L46.953,8.316 L46.953,18.549 L41.526,18.549 L41.526,0.54 L47.142,0.54 L53.406,10.26 L53.406,0.54 L58.86,0.54 L58.86,18.549 Z M80.46,0.54 L73.818,18.549 L66.96,18.549 L60.318,0.54 L66.501,0.54 L70.389,12.663 L74.277,0.54 L80.46,0.54 Z M95.58,18.549 L81.918,18.549 L81.918,0.54 L95.58,0.54 L95.58,4.86 L87.372,4.833 L87.372,7.425 L95.391,7.425 L95.391,11.475 L87.372,11.448 L87.372,14.229 L95.58,14.229 L95.58,18.549 Z M114.129,18.549 L107.919,18.549 L105.192,12.15 L103.464,12.123 L103.464,18.549 L98.01,18.549 L98.01,0.54 L107.622,0.54 C108.648005,0.54 109.561496,0.688498515 110.3625,0.9855 C111.163504,1.28250149 111.842997,1.68299748 112.401,2.187 C112.959003,2.69100252 113.381999,3.28499658 113.67,3.969 C113.958001,4.65300342 114.102,5.37299622 114.102,6.129 C114.102,7.04700459 113.940002,7.8254968 113.616,8.4645 C113.291998,9.1035032 112.923002,9.62999793 112.509,10.044 C112.094998,10.4580021 111.694502,10.768499 111.3075,10.9755 C110.920498,11.182501 110.655001,11.3219996 110.511,11.394 L114.129,18.549 Z M108.567,6.345 C108.567,5.84099748 108.400502,5.40450185 108.0675,5.0355 C107.734498,4.66649815 107.343002,4.482 106.893,4.482 L103.464,4.482 L103.464,8.262 L106.893,8.262 C107.325002,8.262 107.711998,8.0820018 108.054,7.722 C108.396002,7.3619982 108.567,6.90300279 108.567,6.345 Z M132.057,12.987 C132.057,13.9050046 131.872502,14.7374963 131.5035,15.4845 C131.134498,16.2315037 130.594504,16.8704973 129.8835,17.4015 C129.172496,17.9325027 128.299505,18.3464985 127.2645,18.6435 C126.229495,18.9405015 125.055007,19.089 123.741,19.089 C122.588994,19.089 121.581004,18.985501 120.717,18.7785 C119.852996,18.571499 119.097003,18.3195015 118.449,18.0225 C117.800997,17.7254985 117.261002,17.4015018 116.829,17.0505 C116.396998,16.6994982 116.037001,16.3710015 115.749,16.065 L118.584,12.582 C118.728001,12.780001 118.966498,13.0184986 119.2995,13.2975 C119.632502,13.5765014 120.019498,13.8464987 120.4605,14.1075 C120.901502,14.3685013 121.382997,14.5934991 121.905,14.7825 C122.427003,14.9715009 122.948997,15.066 123.471,15.066 C124.245004,15.066 124.870498,14.9490012 125.3475,14.715 C125.824502,14.4809988 126.063,14.1570021 126.063,13.743 C126.063,13.2929977 125.851502,12.9330013 125.4285,12.663 C125.005498,12.3929986 124.227006,12.1680009 123.093,11.988 C121.688993,11.7539988 120.528005,11.4255021 119.61,11.0025 C118.691995,10.5794979 117.972003,10.0935027 117.45,9.5445 C116.927997,8.99549726 116.563501,8.4015032 116.3565,7.7625 C116.149499,7.1234968 116.046,6.47100333 116.046,5.805 C116.046,5.13899667 116.216998,4.45950347 116.559,3.7665 C116.901002,3.07349654 117.395997,2.44800279 118.044,1.89 C118.692003,1.33199721 119.492995,0.877501755 120.447,0.5265 C121.401005,0.175498245 122.498994,0 123.741,0 C124.821005,0 125.774996,0.076499235 126.603,0.2295 C127.431004,0.382500765 128.155497,0.589498695 128.7765,0.8505 C129.397503,1.1115013 129.923998,1.40399838 130.356,1.728 C130.788002,2.05200162 131.156998,2.37599838 131.463,2.7 L128.628,5.805 C128.411999,5.57099883 128.137502,5.34600108 127.8045,5.13 C127.471498,4.91399892 127.116002,4.72500081 126.738,4.563 C126.359998,4.40099919 125.968502,4.27500045 125.5635,4.185 C125.158498,4.09499955 124.776002,4.05 124.416,4.05 C123.695996,4.05 123.124502,4.14899901 122.7015,4.347 C122.278498,4.54500099 122.067,4.89599748 122.067,5.4 C122.067,5.81400207 122.273998,6.12449896 122.688,6.3315 C123.102002,6.53850103 123.722996,6.71399928 124.551,6.858 C125.649005,7.05600099 126.661495,7.2944986 127.5885,7.5735 C128.515505,7.85250139 129.307497,8.22599766 129.9645,8.694 C130.621503,9.16200234 131.134498,9.74249653 131.5035,10.4355 C131.872502,11.1285035 132.057,11.978995 132.057,12.987 Z M139.968,18.549 L134.514,18.549 L134.514,0.54 L139.968,0.54 L139.968,18.549 Z M162.108,9.558 C162.108,10.9440069 161.856003,12.2174942 161.352,13.3785 C160.847997,14.5395058 160.155004,15.5429958 159.273,16.389 C158.390996,17.2350042 157.351506,17.8964976 156.1545,18.3735 C154.957494,18.8505024 153.666007,19.089 152.28,19.089 C150.875993,19.089 149.575506,18.8505024 148.3785,18.3735 C147.181494,17.8964976 146.142004,17.2350042 145.26,16.389 C144.377996,15.5429958 143.685003,14.5395058 143.181,13.3785 C142.676997,12.2174942 142.425,10.9440069 142.425,9.558 C142.425,8.17199307 142.676997,6.89400585 143.181,5.724 C143.685003,4.55399415 144.377996,3.54600423 145.26,2.7 C146.142004,1.85399577 147.181494,1.19250239 148.3785,0.7155 C149.575506,0.238497615 150.875993,0 152.28,0 C153.666007,0 154.957494,0.238497615 156.1545,0.7155 C157.351506,1.19250239 158.390996,1.85399577 159.273,2.7 C160.155004,3.54600423 160.847997,4.55399415 161.352,5.724 C161.856003,6.89400585 162.108,8.17199307 162.108,9.558 Z M156.573,9.558 C156.573,8.87399658 156.483001,8.22150311 156.303,7.6005 C156.122999,6.9794969 155.857502,6.43050238 155.5065,5.9535 C155.155498,5.47649761 154.710003,5.09850139 154.17,4.8195 C153.629997,4.5404986 153.000004,4.401 152.28,4.401 C151.541996,4.401 150.903003,4.5404986 150.363,4.8195 C149.822997,5.09850139 149.373002,5.47649761 149.013,5.9535 C148.652998,6.43050238 148.387501,6.9794969 148.2165,7.6005 C148.045499,8.22150311 147.96,8.87399658 147.96,9.558 C147.96,10.2420034 148.045499,10.8944969 148.2165,11.5155 C148.387501,12.1365031 148.652998,12.6809977 149.013,13.149 C149.373002,13.6170023 149.822997,13.9904986 150.363,14.2695 C150.903003,14.5485014 151.541996,14.688 152.28,14.688 C153.000004,14.688 153.629997,14.5485014 154.17,14.2695 C154.710003,13.9904986 155.155498,13.6170023 155.5065,13.149 C155.857502,12.6809977 156.122999,12.1365031 156.303,11.5155 C156.483001,10.8944969 156.573,10.2420034 156.573,9.558 Z M181.872,18.549 L176.634,18.549 L169.965,8.316 L169.965,18.549 L164.538,18.549 L164.538,0.54 L170.154,0.54 L176.418,10.26 L176.418,0.54 L181.872,0.54 L181.872,18.549 Z M200.34,12.987 C200.34,13.9050046 200.155502,14.7374963 199.7865,15.4845 C199.417498,16.2315037 198.877504,16.8704973 198.1665,17.4015 C197.455496,17.9325027 196.582505,18.3464985 195.5475,18.6435 C194.512495,18.9405015 193.338007,19.089 192.024,19.089 C190.871994,19.089 189.864004,18.985501 189,18.7785 C188.135996,18.571499 187.380003,18.3195015 186.732,18.0225 C186.083997,17.7254985 185.544002,17.4015018 185.112,17.0505 C184.679998,16.6994982 184.320001,16.3710015 184.032,16.065 L186.867,12.582 C187.011001,12.780001 187.249498,13.0184986 187.5825,13.2975 C187.915502,13.5765014 188.302498,13.8464987 188.7435,14.1075 C189.184502,14.3685013 189.665997,14.5934991 190.188,14.7825 C190.710003,14.9715009 191.231997,15.066 191.754,15.066 C192.528004,15.066 193.153498,14.9490012 193.6305,14.715 C194.107502,14.4809988 194.346,14.1570021 194.346,13.743 C194.346,13.2929977 194.134502,12.9330013 193.7115,12.663 C193.288498,12.3929986 192.510006,12.1680009 191.376,11.988 C189.971993,11.7539988 188.811005,11.4255021 187.893,11.0025 C186.974995,10.5794979 186.255003,10.0935027 185.733,9.5445 C185.210997,8.99549726 184.846501,8.4015032 184.6395,7.7625 C184.432499,7.1234968 184.329,6.47100333 184.329,5.805 C184.329,5.13899667 184.499998,4.45950347 184.842,3.7665 C185.184002,3.07349654 185.678997,2.44800279 186.327,1.89 C186.975003,1.33199721 187.775995,0.877501755 188.73,0.5265 C189.684005,0.175498245 190.781994,0 192.024,0 C193.104005,0 194.057996,0.076499235 194.886,0.2295 C195.714004,0.382500765 196.438497,0.589498695 197.0595,0.8505 C197.680503,1.1115013 198.206998,1.40399838 198.639,1.728 C199.071002,2.05200162 199.439998,2.37599838 199.746,2.7 L196.911,5.805 C196.694999,5.57099883 196.420502,5.34600108 196.0875,5.13 C195.754498,4.91399892 195.399002,4.72500081 195.021,4.563 C194.642998,4.40099919 194.251502,4.27500045 193.8465,4.185 C193.441498,4.09499955 193.059002,4.05 192.699,4.05 C191.978996,4.05 191.407502,4.14899901 190.9845,4.347 C190.561498,4.54500099 190.35,4.89599748 190.35,5.4 C190.35,5.81400207 190.556998,6.12449896 190.971,6.3315 C191.385002,6.53850103 192.005996,6.71399928 192.834,6.858 C193.932005,7.05600099 194.944495,7.2944986 195.8715,7.5735 C196.798505,7.85250139 197.590497,8.22599766 198.2475,8.694 C198.904503,9.16200234 199.417498,9.74249653 199.7865,10.4355 C200.155502,11.1285035 200.34,11.978995 200.34,12.987 Z M235.737,6.345 C235.737,7.11900387 235.611001,7.85699649 235.359,8.559 C235.106999,9.26100351 234.715503,9.8819973 234.1845,10.422 C233.653497,10.9620027 232.978504,11.3849985 232.1595,11.691 C231.340496,11.9970015 230.373006,12.15 229.257,12.15 L225.099,12.123 L225.099,18.549 L219.645,18.549 L219.645,0.54 L229.257,0.54 C230.283005,0.54 231.196496,0.697498425 231.9975,1.0125 C232.798504,1.32750157 233.477997,1.75049734 234.036,2.2815 C234.594003,2.81250266 235.016999,3.42899649 235.305,4.131 C235.593001,4.83300351 235.737,5.57099613 235.737,6.345 Z M230.202,6.09593604 C230.202,5.53793325 230.022002,5.22492505 229.662,4.88292334 C229.301998,4.54092163 228.924002,4.482 228.528,4.482 L225.099,4.482 L225.099,7.82475684 L228.528,7.82475684 C228.924002,7.82475684 229.301998,7.80674004 229.662,7.45573828 C230.022002,7.10473653 230.202,6.67193892 230.202,6.09593604 Z M249.966,18.549 L237.681,18.549 L237.681,0.54 L243.135,0.54 L243.135,14.256 L249.966,14.256 L249.966,18.549 Z M269.865,11.178 C269.865,12.2940056 269.644502,13.3334952 269.2035,14.2965 C268.762498,15.2595048 268.146004,16.0964964 267.354,16.8075 C266.561996,17.5185036 265.617005,18.076498 264.519,18.4815 C263.420995,18.886502 262.215007,19.089 260.901,19.089 C259.586993,19.089 258.381005,18.886502 257.283,18.4815 C256.184995,18.076498 255.235504,17.5230035 254.4345,16.821 C253.633496,16.1189965 253.012502,15.2865048 252.5715,14.3235 C252.130498,13.3604952 251.91,12.3210056 251.91,11.205 L251.91,0.54 L257.445,0.54 L257.445,11.475 C257.445,11.9070022 257.530499,12.3164981 257.7015,12.7035 C257.872501,13.0905019 258.115498,13.4324985 258.4305,13.7295 C258.745502,14.0265015 259.114498,14.2604991 259.5375,14.4315 C259.960502,14.6025009 260.414998,14.688 260.901,14.688 C261.387002,14.688 261.836998,14.6025009 262.251,14.4315 C262.665002,14.2604991 263.029498,14.0265015 263.3445,13.7295 C263.659502,13.4324985 263.902499,13.0905019 264.0735,12.7035 C264.244501,12.3164981 264.33,11.9070022 264.33,11.475 L264.33,0.54 L269.865,0.54 L269.865,11.178 Z M288.333,12.987 C288.333,13.9050046 288.148502,14.7374963 287.7795,15.4845 C287.410498,16.2315037 286.870504,16.8704973 286.1595,17.4015 C285.448496,17.9325027 284.575505,18.3464985 283.5405,18.6435 C282.505495,18.9405015 281.331007,19.089 280.017,19.089 C278.864994,19.089 277.857004,18.985501 276.993,18.7785 C276.128996,18.571499 275.373003,18.3195015 274.725,18.0225 C274.076997,17.7254985 273.537002,17.4015018 273.105,17.0505 C272.672998,16.6994982 272.313001,16.3710015 272.025,16.065 L274.86,12.582 C275.004001,12.780001 275.242498,13.0184986 275.5755,13.2975 C275.908502,13.5765014 276.295498,13.8464987 276.7365,14.1075 C277.177502,14.3685013 277.658997,14.5934991 278.181,14.7825 C278.703003,14.9715009 279.224997,15.066 279.747,15.066 C280.521004,15.066 281.146498,14.9490012 281.6235,14.715 C282.100502,14.4809988 282.339,14.1570021 282.339,13.743 C282.339,13.2929977 282.127502,12.9330013 281.7045,12.663 C281.281498,12.3929986 280.503006,12.1680009 279.369,11.988 C277.964993,11.7539988 276.804005,11.4255021 275.886,11.0025 C274.967995,10.5794979 274.248003,10.0935027 273.726,9.5445 C273.203997,8.99549726 272.839501,8.4015032 272.6325,7.7625 C272.425499,7.1234968 272.322,6.47100333 272.322,5.805 C272.322,5.13899667 272.492998,4.45950347 272.835,3.7665 C273.177002,3.07349654 273.671997,2.44800279 274.32,1.89 C274.968003,1.33199721 275.768995,0.877501755 276.723,0.5265 C277.677005,0.175498245 278.774994,0 280.017,0 C281.097005,0 282.050996,0.076499235 282.879,0.2295 C283.707004,0.382500765 284.431497,0.589498695 285.0525,0.8505 C285.673503,1.1115013 286.199998,1.40399838 286.632,1.728 C287.064002,2.05200162 287.432998,2.37599838 287.739,2.7 L284.904,5.805 C284.687999,5.57099883 284.413502,5.34600108 284.0805,5.13 C283.747498,4.91399892 283.392002,4.72500081 283.014,4.563 C282.635998,4.40099919 282.244502,4.27500045 281.8395,4.185 C281.434498,4.09499955 281.052002,4.05 280.692,4.05 C279.971996,4.05 279.400502,4.14899901 278.9775,4.347 C278.554498,4.54500099 278.343,4.89599748 278.343,5.4 C278.343,5.81400207 278.549998,6.12449896 278.964,6.3315 C279.378002,6.53850103 279.998996,6.71399928 280.827,6.858 C281.925005,7.05600099 282.937495,7.2944986 283.8645,7.5735 C284.791505,7.85250139 285.583497,8.22599766 286.2405,8.694 C286.897503,9.16200234 287.410498,9.74249653 287.7795,10.4355 C288.148502,11.1285035 288.333,11.978995 288.333,12.987 Z" id="CONVERSIONSPLUS" fill="#374050" fill-rule="nonzero"></path>
                <rect id="Rectangle-Copy-18" fill="#4A90E2" x="216.001" y="0.549" width="4" height="18"></rect>
                <polygon id="Rectangle-Copy-19" fill="#4A90E2" points="227.001 7.82524327 226.927375 11.549 209.001 11.2727567 209.074625 7.549"></polygon>
            </g>
        </g>
    </g>
</svg>