<?xml version="1.0" encoding="UTF-8"?>
<svg width="43px" height="42px" viewBox="0 0 43 42" version="1.1" xmlns="http://www.w3.org/2000/svg" xmlns:xlink="http://www.w3.org/1999/xlink">
    <!-- Generator: Sketch 55.2 (78181) - https://sketchapp.com -->
    <title>Group 30</title>
    <desc>Created with Sketch.</desc>
    <g id="design-v4" stroke="none" stroke-width="1" fill="none" fill-rule="evenodd">
        <g id="13.2a4-SIGN-UP-SUBMIT-CONFIRMATION" transform="translate(-350.000000, -320.000000)">
            <g id="Group-39" transform="translate(251.000000, 58.000000)">
                <g id="Group-30" transform="translate(99.500000, 262.000000)">
                    <circle id="Oval" fill="#374050" cx="21" cy="21" r="21"></circle>
                    <g id="event" transform="translate(10.000000, 9.000000)" fill="#FFFFFF" fill-rule="nonzero">
                        <path d="M22.9166504,14.8550781 L22.9166504,4.16665039 C22.9166504,3.01767578 21.9817871,2.08330078 20.8333008,2.08330078 L17.7083008,2.08330078 L17.7083008,0.520800781 C17.7083496,0.232958984 17.4753906,0 17.1875,0 C16.8996094,0 16.6666504,0.232958984 16.6666504,0.520849609 L16.6666504,2.08334961 L7.29165039,2.08334961 L7.29165039,0.520849609 C7.29165039,0.232958984 7.05874023,0 6.77084961,0 C6.48295898,0 6.25,0.232958984 6.25,0.520849609 L6.25,2.08334961 L2.08334961,2.08334961 C0.934863281,2.08334961 0,3.01767578 0,4.16665039 L0,20.8333008 C0,21.9822754 0.934863281,22.9166504 2.08334961,22.9166504 L14.8549805,22.9166504 C15.9068359,24.1882812 17.4958984,25 19.2708496,25 C22.4293945,25 25,22.4299316 25,19.2708496 C25,17.495752 24.1881836,15.9067383 22.9166504,14.8550781 Z M1.04165039,4.16665039 C1.04165039,3.59243164 1.50859375,3.125 2.08334961,3.125 L6.25,3.125 L6.25,4.16665039 C5.67524414,4.16665039 5.20834961,4.63408203 5.20834961,5.20830078 C5.20834961,5.78251953 5.67529297,6.24995117 6.25,6.24995117 C6.82470703,6.24995117 7.29165039,5.78251953 7.29165039,5.20830078 L7.29165039,3.125 L16.6666504,3.125 L16.6666504,4.16665039 C16.0918945,4.16665039 15.625,4.63408203 15.625,5.20830078 C15.625,5.78251953 16.0919434,6.24995117 16.6666504,6.24995117 C17.2414062,6.24995117 17.7083008,5.78251953 17.7083008,5.20830078 L17.7083008,3.125 L20.8333008,3.125 C21.4081055,3.125 21.875,3.59243164 21.875,4.16665039 L21.875,7.29165039 L1.04165039,7.29165039 L1.04165039,4.16665039 Z M2.08334961,21.875 C1.50859375,21.875 1.04169922,21.4075684 1.04169922,20.8333496 L1.04169922,8.33334961 L21.875,8.33334961 L21.875,14.1742188 C21.092627,13.7727051 20.2089355,13.5416992 19.2708496,13.5416992 C16.1122559,13.5416992 13.5416992,16.1117676 13.5416992,19.2708496 C13.5416992,20.2089355 13.7728027,21.092627 14.1742188,21.875 L2.08334961,21.875 Z M19.2708496,23.9583496 C16.6859863,23.9583496 14.5833496,21.8556641 14.5833496,19.2708496 C14.5833496,16.6860352 16.6860352,14.5833496 19.2708496,14.5833496 C21.8556641,14.5833496 23.9583496,16.6860352 23.9583496,19.2708496 C23.9583496,21.8556641 21.8556641,23.9583496 19.2708496,23.9583496 Z" id="Shape"></path>
                        <path d="M19.7916504,19.0551758 L19.7916504,16.1458496 C19.7916504,15.857959 19.5586914,15.625 19.2708008,15.625 C18.9829102,15.625 18.75,15.857959 18.75,16.1458496 L18.75,19.2708496 C18.75,19.4091797 18.8049316,19.5414551 18.9025879,19.6391113 L20.4650879,21.2016113 C20.5667969,21.3033203 20.7000977,21.3541992 20.8333496,21.3541992 C20.9666016,21.3541992 21.0998535,21.3033203 21.2016113,21.2016113 C21.4050781,20.9981445 21.4050781,20.6685547 21.2016113,20.4651367 L19.7916504,19.0551758 Z" id="Path"></path>
                    </g>
                </g>
            </g>
        </g>
    </g>
</svg>