<?xml version="1.0" encoding="UTF-8"?>
<svg width="43px" height="42px" viewBox="0 0 43 42" version="1.1" xmlns="http://www.w3.org/2000/svg" xmlns:xlink="http://www.w3.org/1999/xlink">
    <!-- Generator: Sketch 55.2 (78181) - https://sketchapp.com -->
    <title>Group 38</title>
    <desc>Created with Sketch.</desc>
    <g id="design-v4" stroke="none" stroke-width="1" fill="none" fill-rule="evenodd">
        <g id="13.2a4-SIGN-UP-SUBMIT-CONFIRMATION" transform="translate(-350.000000, -442.000000)">
            <g id="Group-39" transform="translate(251.000000, 58.000000)">
                <g id="Group-38" transform="translate(99.500000, 384.000000)">
                    <circle id="Oval-Copy-32" fill="#374050" cx="21" cy="21" r="21"></circle>
                    <g id="download-1-copy-3" transform="translate(9.000000, 9.000000)" fill="#FFFFFF">
                        <path d="M11.3884531,16.9294163 C11.5408724,17.0788196 11.746151,17.159378 11.9454912,17.159378 C12.1451246,17.159378 12.3504765,17.0847123 12.5028226,16.9294163 L17.6465176,11.887506 C17.9572214,11.582663 17.9572214,11.0939225 17.6465176,10.789367 C17.3358138,10.4848114 16.8372067,10.4848114 16.5262097,10.789367 L12.7316349,14.5091412 L12.7316349,0.776192611 C12.7316349,0.345014418 12.3796554,0 11.9397727,0 C11.49989,0 11.1479106,0.345014418 11.1479106,0.776192611 L11.1479106,14.5032485 L7.35333578,10.7837617 C7.04233871,10.4789187 6.54373167,10.4789187 6.23302786,10.7837617 C5.92232405,11.0883172 5.92232405,11.5770577 6.23302786,11.8816132 L11.3884531,16.9294163 Z" id="Fill-1"></path>
                        <path d="M24.1465543,15 C23.7066716,15 23.3547654,15.344727 23.3547654,15.7759052 L23.3547654,20.7085837 L1.58372434,20.7085837 L1.58372434,15.7759052 C1.58372434,15.344727 1.23174487,15 0.79186217,15 C0.351979472,15 0,15.344727 0,15.7759052 L0,21.4847763 C0,21.9159545 0.351979472,22.2609689 0.79186217,22.2609689 L24.152566,22.2609689 C24.5924487,22.2609689 24.9441349,21.9159545 24.9441349,21.4847763 L24.9441349,15.7759052 C24.9384164,15.344727 24.586437,15 24.1465543,15 Z" id="Fill-2"></path>
                    </g>
                </g>
            </g>
        </g>
    </g>
</svg>