<?xml version="1.0" encoding="UTF-8"?>
<svg width="90px" height="90px" viewBox="0 0 90 90" version="1.1" xmlns="http://www.w3.org/2000/svg" xmlns:xlink="http://www.w3.org/1999/xlink">
    <!-- Generator: Sketch 55.2 (78181) - https://sketchapp.com -->
    <title>Group</title>
    <desc>Created with Sketch.</desc>
    <g id="design" stroke="none" stroke-width="1" fill="none" fill-rule="evenodd">
        <g id="EYELEVEL-FOR-ENTERPRISE-design-v1" transform="translate(-1079.000000, -1534.000000)" fill="#8896A7" fill-rule="nonzero">
            <g id="diagram" transform="translate(1047.000000, 1499.000000)">
                <g id="Group" transform="translate(32.000000, 35.000000)">
                    <polygon id="Path" points="27.0002 9.001 7.5005 9.001 7.5005 12.001 27.0002 12.001"></polygon>
                    <polygon id="Path" points="27.0002 15.0009 7.5005 15.0009 7.5005 18.0009 27.0002 18.0009"></polygon>
                    <polygon id="Path" points="21.0003 21.0009 7.5005 21.0009 7.5005 24.0008 21.0003 24.0008"></polygon>
                    <polygon id="Path" points="21.0003 27.0008 7.5005 27.0008 7.5005 30.0008 21.0003 30.0008"></polygon>
                    <polygon id="Path" points="89.999 87 0.0006 87 0.0006 90 89.999 90"></polygon>
                    <path d="M86.842,12.8305 L80.842,0.8306 C80.472,0.0893 79.572,-0.2119 78.83,0.1581 C78.83,0.1583 78.829,0.1584 78.829,0.1586 L66.8292,6.1586 C66.0879,6.5289 65.7869,7.4302 66.1572,8.1715 C66.5275,8.9129 67.4288,9.2138 68.17,8.8435 L76.861,4.5011 L74.49,11.272 C64.0661,40.9581 37.2185,61.7846 5.873,64.5003 L6.128,67.5 C38.6545,64.6826 66.5124,43.0684 77.323,12.262 L79.744,5.3441 L84.157,14.1715 C84.527,14.9128 85.429,15.2138 86.17,14.8435 C86.912,14.4731 87.212,13.572 86.842,12.8305 Z" id="Path"></path>
                    <path d="M18.0003,72 L7.5005,72 C6.6721,72 6.0005,72.672 6.0005,73.5 L6.0005,82.5 C6.0005,83.328 6.6721,84 7.5005,84 L18.0003,84 C18.8287,84 19.5003,83.328 19.5003,82.5 L19.5003,73.5 C19.5003,72.672 18.8287,72 18.0003,72 Z M16.5004,81 L9.0005,81 L9.0005,75 L16.5004,75 L16.5004,81 Z" id="Shape"></path>
                    <path d="M34.5001,67.5 L24.0003,67.5 C23.1719,67.5 22.5003,68.172 22.5003,69 L22.5003,82.5 C22.5003,83.328 23.1719,84 24.0003,84 L34.5001,84 C35.3285,84 36.0001,83.328 36.0001,82.5 L36.0001,69 C36.0001,68.172 35.3285,67.5 34.5001,67.5 Z M33.0002,81 L25.5002,81 L25.5002,70.5 L33.0002,70.5 L33.0002,81 Z" id="Shape"></path>
                    <path d="M50.9999,60.0004 L40.5001,60.0004 C39.6717,60.0004 39.0001,60.672 39.0001,61.5004 L39.0001,82.5 C39.0001,83.328 39.6717,84 40.5001,84 L50.9999,84 C51.8283,84 52.4999,83.328 52.4999,82.5 L52.4999,61.5004 C52.4999,60.672 51.8283,60.0004 50.9999,60.0004 Z M49.4999,81 L42,81 L42,63.0003 L49.4999,63.0003 L49.4999,81 Z" id="Shape"></path>
                    <path d="M67.4997,49.5005 L56.9998,49.5005 C56.1715,49.5005 55.4999,50.1721 55.4999,51.0005 L55.4999,82.5 C55.4999,83.328 56.1715,84 56.9998,84 L67.4997,84 C68.328,84 69,83.328 69,82.5 L69,51.0005 C69,50.1721 68.328,49.5005 67.4997,49.5005 Z M65.9997,81 L58.4998,81 L58.4998,52.5005 L65.9997,52.5005 L65.9997,81 Z" id="Shape"></path>
                    <path d="M84,28.5008 L73.5,28.5008 C72.671,28.5008 72,29.1724 72,30.0007 L72,82.5 C72,83.328 72.671,84 73.5,84 L84,84 C84.828,84 85.499,83.328 85.499,82.5 L85.499,30.0007 C85.499,29.1724 84.828,28.5008 84,28.5008 Z M82.5,81 L75,81 L75,31.5007 L82.5,31.5007 L82.5,81 Z" id="Shape"></path>
                </g>
            </g>
        </g>
    </g>
</svg>