<svg width="120" height="120" viewBox="0 0 120 120" fill="none" xmlns="http://www.w3.org/2000/svg">
<path d="M102.741 35.7495C101.058 27.0505 93.4367 20.6668 84.4241 20.6668C83.4725 20.6668 82.5027 20.7458 81.5274 20.9024C75.7609 11.4538 65.469 5.63661 54.3639 5.63661C38.7454 5.63661 25.5782 16.8835 23.0076 32.0907C22.185 31.9902 21.3618 31.9395 20.5457 31.9395C9.21678 31.9393 0 41.1561 0 52.485C0 63.8138 9.21678 73.0305 20.5455 73.0305H35.5757C36.5465 73.0305 37.3335 72.2435 37.3335 71.2727C37.3335 70.302 36.5465 69.5149 35.5757 69.5149H20.5455C11.1553 69.5149 3.51562 61.8753 3.51562 52.485C3.51562 43.0946 11.1553 35.4552 20.5455 35.4552C21.7305 35.4552 22.9364 35.5848 24.1296 35.8405C24.6154 35.9445 25.1231 35.8381 25.526 35.5473C25.9291 35.2566 26.1904 34.8087 26.2448 34.3145C27.8289 19.9696 39.9173 9.152 54.3632 9.152C64.6215 9.152 74.1006 14.7341 79.1012 23.72C79.4813 24.4035 80.2681 24.7531 81.0298 24.5788C82.1778 24.3156 83.3197 24.1822 84.4236 24.1822C92.1575 24.1822 98.6286 29.9734 99.4763 37.6529C99.5745 38.5442 100.328 39.2178 101.223 39.2178C101.227 39.2178 101.231 39.2178 101.234 39.2178C101.281 39.2176 101.327 39.2157 101.376 39.2124C109.711 39.2358 116.484 46.0236 116.484 54.3638C116.484 62.7181 109.687 69.5149 101.333 69.5149H71.1517V61.4691C73.3332 60.7334 74.9092 58.6693 74.9092 56.2425V33.6971C74.9092 30.6559 72.4349 28.1818 69.3939 28.1818H46.8487C43.8074 28.1818 41.3334 30.6559 41.3334 33.6971V56.2425C41.3334 58.6693 42.9093 60.7332 45.0909 61.4691V69.5149H43.0914C42.1206 69.5149 41.3336 70.302 41.3336 71.2727C41.3336 72.2435 42.1206 73.0305 43.0914 73.0305H45.0909V80.7876H33.2873C32.5516 78.6061 30.4874 77.0301 28.0607 77.0301C25.0195 77.0301 22.5454 79.5044 22.5454 82.5454C22.5454 85.5865 25.0197 88.0608 28.0607 88.0608C30.4874 88.0608 32.5516 86.4848 33.2873 84.3033H45.0909V92.3491C42.9093 93.0848 41.3334 95.1489 41.3334 97.5757C41.3334 100.617 43.8077 103.091 46.8487 103.091C49.8897 103.091 52.364 100.617 52.364 97.5757C52.364 95.1489 50.788 93.0848 48.6065 92.3491V73.0305H56.3636V103.622C54.182 104.358 52.6061 106.422 52.6061 108.848C52.6061 111.89 55.0804 114.364 58.1214 114.364C61.1624 114.364 63.6367 111.889 63.6367 108.848C63.6367 106.422 62.0607 104.358 59.8792 103.622V73.0305H67.6363V92.3491C65.4547 93.0848 63.8788 95.1489 63.8788 97.5757C63.8788 100.617 66.3531 103.091 69.3941 103.091C72.4351 103.091 74.9094 100.617 74.9094 97.5757C74.9094 95.1489 73.3335 93.0848 71.1519 92.3491V84.3033H82.9555C83.6912 86.4848 85.7553 88.0608 88.182 88.0608C91.2233 88.0608 93.6976 85.5865 93.6976 82.5454C93.6976 79.5044 91.2233 77.0301 88.182 77.0301C85.7553 77.0301 83.6914 78.6061 82.9555 80.7876H71.1519V73.0305H101.333C111.626 73.0305 120 64.6566 120 54.3638C120 44.5444 112.378 36.4716 102.741 35.7495ZM28.0607 84.5451C26.958 84.5451 26.061 83.6479 26.061 82.5454C26.061 81.443 26.9582 80.5458 28.0607 80.5458C29.1635 80.5458 30.0606 81.443 30.0606 82.5454C30.0606 83.6479 29.1635 84.5451 28.0607 84.5451ZM48.8481 97.5757C48.8481 98.6782 47.9512 99.5753 46.8484 99.5753C45.7457 99.5753 44.8487 98.6782 44.8487 97.5757C44.8487 96.4729 45.7459 95.576 46.8484 95.576C47.9509 95.576 48.8481 96.4732 48.8481 97.5757ZM56.3633 69.5149H48.6062V61.7578H56.3633V69.5149ZM60.1208 108.848C60.1208 109.951 59.2236 110.848 58.1211 110.848C57.0184 110.848 56.1215 109.951 56.1215 108.848C56.1215 107.746 57.0186 106.849 58.1211 106.849C59.2236 106.849 60.1208 107.746 60.1208 108.848ZM67.636 69.5149H59.8789V61.7578H67.636V69.5149ZM59.8787 58.2422V54.2429H65.6359C66.6067 54.2429 67.3937 53.4558 67.3937 52.485V44.9698C67.3937 43.999 66.6067 43.212 65.6359 43.212C64.6651 43.212 63.8781 43.999 63.8781 44.9698V50.7272H52.3635V39.2126H65.6359C66.6067 39.2126 67.3937 38.4256 67.3937 37.4548C67.3937 36.4841 66.6067 35.697 65.6359 35.697H50.6057C49.6349 35.697 48.8479 36.4841 48.8479 37.4548V52.485C48.8479 53.4558 49.6349 54.2429 50.6057 54.2429H56.3629V58.2422H46.848C45.7452 58.2422 44.8483 57.345 44.8483 56.2425V33.6971H44.8487C44.8487 32.5944 45.7459 31.6974 46.8484 31.6974H69.3936C70.4963 31.6974 71.3933 32.5946 71.3933 33.6971V56.2425C71.3933 57.3453 70.4961 58.2422 69.3936 58.2422H59.8787ZM71.3935 97.5757C71.3935 98.6782 70.4963 99.5753 69.3939 99.5753C68.2911 99.5753 67.3942 98.6782 67.3942 97.5757C67.3942 96.4729 68.2914 95.576 69.3939 95.576C70.4963 95.576 71.3935 96.4732 71.3935 97.5757ZM88.1815 80.5455C89.2843 80.5455 90.1815 81.4427 90.1815 82.5452C90.1815 83.6477 89.2843 84.5449 88.1815 84.5449C87.0788 84.5449 86.1819 83.6477 86.1819 82.5452C86.1819 81.4427 87.0788 80.5455 88.1815 80.5455Z" fill="#D7D7D7"/>
</svg>
