<svg width="120" height="120" viewBox="0 0 120 120" fill="none" xmlns="http://www.w3.org/2000/svg">
<path d="M24.9609 89.9222C24.9609 90.8926 25.7483 91.68 26.7188 91.68C27.6892 91.68 28.4766 90.8926 28.4766 89.9222V71.1301C28.5123 71.1301 28.548 71.1319 28.5837 71.1319C29.7949 71.1319 30.8762 70.9653 31.6782 70.7913C32.6047 70.5899 33.2639 69.7568 33.2465 68.8092C33.2291 67.8607 32.5388 67.0523 31.6058 66.8848C30.7306 66.7282 30.1355 66.3528 29.7336 65.7047C28.8766 64.3231 29.0222 62.0261 29.2941 60.4642H38.6572C44.61 60.4642 49.4531 55.621 49.4531 49.6683V27.9007C49.4531 21.9479 44.61 17.1048 38.6572 17.1048H28.4766V14.2969H37.4222C38.3926 14.2969 39.18 13.5095 39.18 12.5391C39.18 11.5686 38.3926 10.7812 37.4222 10.7812H28.4766V8.78906C28.4766 5.88135 30.8423 3.51562 33.75 3.51562H86.25C89.1577 3.51562 91.5234 5.88135 91.5234 8.78906V10.7812H44.9222C43.9508 10.7812 43.1644 11.5686 43.1644 12.5391C43.1644 13.5095 43.9508 14.2969 44.9222 14.2969H91.5234V22.5C91.5234 23.4705 92.3108 24.2578 93.2812 24.2578C94.2517 24.2578 95.0391 23.4705 95.0391 22.5V8.78906C95.0391 3.94226 91.0968 0 86.25 0H33.75C28.9032 0 24.9609 3.94226 24.9609 8.78906V17.1048H10.7959C4.84314 17.1048 0 21.9479 0 27.9007V49.6683C0 55.621 4.84314 60.4642 10.7959 60.4642H18.0066C18.5138 64.455 19.9686 67.3837 22.3425 69.1837C23.1802 69.819 24.0683 70.2612 24.9609 70.5643V89.9222ZM21.3638 58.602C21.3089 57.6736 20.5399 56.9485 19.6088 56.9485H10.7959C6.78131 56.9485 3.51562 53.6829 3.51562 49.6683V27.9007C3.51562 23.8861 6.78131 20.6204 10.7959 20.6204H38.6572C42.6718 20.6204 45.9375 23.8861 45.9375 27.9007V49.6683C45.9375 53.6829 42.6718 56.9485 38.6572 56.9485H27.8906C27.1115 56.9485 26.4249 57.4622 26.2051 58.2092C26.0339 58.7878 24.6167 63.8974 26.6501 67.3984C25.8939 67.2134 25.144 66.8958 24.4675 66.3821C22.6318 64.9905 21.5872 62.373 21.3638 58.602Z" fill="#D7D7D7"/>
<path d="M55.3125 114.609H64.6875C65.658 114.609 66.4453 113.822 66.4453 112.852C66.4453 111.881 65.658 111.094 64.6875 111.094H55.3125C54.342 111.094 53.5547 111.881 53.5547 112.852C53.5547 113.822 54.342 114.609 55.3125 114.609Z" fill="#D7D7D7"/>
<path d="M36.3281 35.7605C36.3281 31.6736 33.4195 28.472 29.707 28.472C27.4942 28.472 25.8627 29.3829 24.8438 30.1996C23.8248 29.3829 22.1933 28.472 19.9805 28.472C16.268 28.472 13.3594 31.6736 13.3594 35.7605C13.3594 38.3542 14.6832 43.4024 23.5529 48.0753C23.9566 48.2886 24.4006 48.3948 24.8438 48.3948C25.2878 48.3948 25.7309 48.2877 26.1356 48.0753C35.0043 43.4024 36.3281 38.3542 36.3281 35.7605ZM16.875 35.7605C16.875 33.9313 17.9636 31.9876 19.9805 31.9876C21.4407 31.9876 22.4487 32.699 23.0365 33.2959C23.5089 33.7747 24.1672 34.0485 24.8438 34.0485C25.5203 34.0485 26.1786 33.7738 26.651 33.2959C27.2388 32.699 28.2468 31.9876 29.707 31.9876C31.7239 31.9876 32.8125 33.9313 32.8125 35.7605C32.8125 38.7579 29.9139 42.0328 24.8438 44.7794C19.7736 42.0319 16.875 38.7579 16.875 35.7605Z" fill="#D7D7D7"/>
<path d="M109.204 45.6985H95.0391V29.9213C95.0391 28.9508 94.2517 28.1635 93.2812 28.1635C92.3108 28.1635 91.5234 28.9508 91.5234 29.9213V45.6985H81.3428C75.39 45.6985 70.5469 50.5417 70.5469 56.4944V78.2611C70.5469 84.2148 75.39 89.0579 81.3428 89.0579H90.704C90.9695 90.6052 91.1197 92.9178 90.2692 94.2938C89.8672 94.9448 89.2712 95.321 88.3942 95.4785C87.4612 95.6451 86.7709 96.4545 86.7535 97.402C86.7361 98.3496 87.3953 99.1837 88.3218 99.3851C89.1238 99.559 90.2042 99.7247 91.4163 99.7247C91.4511 99.7247 91.4877 99.7238 91.5234 99.7238V105.703H28.4766V97.4606C28.4766 96.4902 27.6892 95.7028 26.7188 95.7028C25.7474 95.7028 24.9609 96.4902 24.9609 97.4606V111.211C24.9609 116.058 28.9032 120 33.75 120H86.25C91.0959 120 95.0391 116.058 95.0391 111.211V99.158C95.9317 98.855 96.8188 98.4128 97.6566 97.7774C100.031 95.9775 101.486 93.0487 101.992 89.0579H109.203C115.157 89.0579 120 84.2148 120 78.262V56.4944C120 50.5417 115.157 45.6985 109.204 45.6985ZM91.5234 111.211C91.5234 114.119 89.1577 116.484 86.25 116.484H33.75C30.8423 116.484 28.4766 114.119 28.4766 111.211V109.219H91.5234V111.211ZM116.484 78.262C116.484 82.2766 113.219 85.5423 109.204 85.5423H100.39C99.4601 85.5423 98.6911 86.2674 98.6362 87.1957C98.4119 90.9668 97.3682 93.5852 95.5325 94.9759C94.856 95.4895 94.1061 95.8072 93.3499 95.9921C95.3833 92.4902 93.9661 87.3807 93.7949 86.803C93.5751 86.0559 92.8885 85.5423 92.1094 85.5423H81.3428C77.3282 85.5423 74.0625 82.2766 74.0625 78.262V56.4944C74.0625 52.4799 77.3282 49.2142 81.3428 49.2142H109.204C113.219 49.2142 116.484 52.4799 116.484 56.4944V78.262Z" fill="#D7D7D7"/>
<path d="M100.471 64.4366C101.397 63.2904 101.953 61.8329 101.953 60.2472C101.953 56.564 98.9566 53.5675 95.2734 53.5675C91.5903 53.5675 88.5938 56.564 88.5938 60.2472C88.5938 61.8329 89.1495 63.2895 90.076 64.4366C87.247 65.9299 85.3125 68.9008 85.3125 72.3157V72.4713C85.3125 74.8416 87.2415 76.7706 89.6127 76.7706H100.935C103.305 76.7706 105.234 74.8416 105.234 72.4713V72.3157C105.234 68.9008 103.3 65.9299 100.471 64.4366ZM95.2734 57.0831C97.0184 57.0831 98.4375 58.5031 98.4375 60.2472C98.4375 61.9922 97.0184 63.4113 95.2734 63.4113C93.5284 63.4113 92.1094 61.9922 92.1094 60.2472C92.1094 58.5031 93.5284 57.0831 95.2734 57.0831ZM101.719 72.4713C101.719 72.9034 101.367 73.255 100.934 73.255H89.6118C89.1797 73.255 88.8281 72.9034 88.8281 72.4713V72.3157C88.8281 69.3448 91.2451 66.9269 94.2169 66.9269H96.33C99.3018 66.9269 101.719 69.3448 101.719 72.3157V72.4713Z" fill="#D7D7D7"/>
<path d="M81.5881 21.7145H56.7444C55.773 21.7145 54.9866 22.5018 54.9866 23.4723C54.9866 24.4427 55.773 25.2301 56.7444 25.2301H81.5881C82.5586 25.2301 83.3459 24.4427 83.3459 23.4723C83.3459 22.5018 82.5586 21.7145 81.5881 21.7145Z" fill="#D7D7D7"/>
<path d="M81.5881 28.7457H56.7444C55.773 28.7457 54.9866 29.5331 54.9866 30.5035C54.9866 31.474 55.773 32.2614 56.7444 32.2614H81.5881C82.5586 32.2614 83.3459 31.474 83.3459 30.5035C83.3459 29.5331 82.5586 28.7457 81.5881 28.7457Z" fill="#D7D7D7"/>
<path d="M83.3459 37.5348C83.3459 36.5643 82.5586 35.777 81.5881 35.777H56.7444C55.773 35.777 54.9866 36.5643 54.9866 37.5348C54.9866 38.5052 55.773 39.2926 56.7444 39.2926H81.5881C82.5586 39.2926 83.3459 38.5052 83.3459 37.5348Z" fill="#D7D7D7"/>
<path d="M64.2398 73.0847C64.2398 72.1143 63.4525 71.3269 62.482 71.3269H37.6382C36.6669 71.3269 35.8804 72.1143 35.8804 73.0847V80.116C35.8804 81.0864 36.6669 81.8738 37.6382 81.8738H62.482C63.4525 81.8738 64.2398 81.0864 64.2398 80.116V73.0847ZM60.7242 78.3582H39.3961V74.8425H60.7242V78.3582Z" fill="#D7D7D7"/>
<path d="M62.482 85.3894H37.6382C36.6669 85.3894 35.8804 86.1768 35.8804 87.1472C35.8804 88.1177 36.6669 88.905 37.6382 88.905H62.482C63.4525 88.905 64.2398 88.1177 64.2398 87.1472C64.2398 86.1768 63.4525 85.3894 62.482 85.3894Z" fill="#D7D7D7"/>
</svg>
