<?xml version="1.0" encoding="UTF-8"?>
<svg width="43px" height="42px" viewBox="0 0 43 42" version="1.1" xmlns="http://www.w3.org/2000/svg" xmlns:xlink="http://www.w3.org/1999/xlink">
    <!-- Generator: Sketch 55.2 (78181) - https://sketchapp.com -->
    <title>Group 37</title>
    <desc>Created with Sketch.</desc>
    <g id="design-v4" stroke="none" stroke-width="1" fill="none" fill-rule="evenodd">
        <g id="13.2a4-SIGN-UP-SUBMIT-CONFIRMATION" transform="translate(-350.000000, -381.000000)">
            <g id="Group-39" transform="translate(251.000000, 58.000000)">
                <g id="Group-37" transform="translate(99.500000, 323.000000)">
                    <circle id="Oval" fill="#374050" cx="21" cy="21" r="21"></circle>
                    <g id="seen" transform="translate(11.000000, 11.000000)" fill="#FFFFFF" fill-rule="nonzero">
                        <path d="M17.8450781,0 L2.155,0 C0.96671875,0 0,0.966679687 0,2.15492187 L0,17.8450391 C0,19.0332812 0.96671875,20 2.155,20 L17.8450781,20 C19.0333203,20 20,19.0332813 20,17.8450391 L20,2.15492187 C20,0.966679687 19.0333203,0 17.8450781,0 Z M18.828125,17.8450391 C18.828125,18.3871094 18.3871484,18.828125 17.8450781,18.828125 L2.155,18.828125 C1.61289062,18.828125 1.171875,18.3871094 1.171875,17.8450391 L1.171875,2.15492187 C1.171875,1.61285156 1.61289062,1.171875 2.155,1.171875 L17.8450781,1.171875 C18.3871484,1.171875 18.828125,1.61285156 18.828125,2.15492187 L18.828125,17.8450391 Z" id="Shape"></path>
                        <path d="M14.4378516,5.05242188 C13.9460547,5.05242188 13.4837109,5.24390625 13.1359375,5.59164063 L8.22488281,10.5027734 L6.86410156,9.14191406 C6.51636719,8.79417969 6.05398437,8.60261719 5.56222656,8.60261719 C5.07042969,8.60261719 4.60808594,8.79410156 4.2603125,9.141875 C3.91257812,9.48960938 3.72105468,9.95195313 3.72105468,10.44375 C3.72105468,10.9355469 3.91253906,11.3978906 4.2603125,11.745625 L6.92304687,14.4083984 C7.27078125,14.7561328 7.733125,14.9476953 8.22488281,14.9476953 C8.71664062,14.9476953 9.17898437,14.7561719 9.52671875,14.4083984 L15.7398047,8.19535156 C16.4575781,7.47761719 16.4575781,6.30960938 15.7397656,5.5915625 C15.3919922,5.24390625 14.9296484,5.05242188 14.4378516,5.05242188 Z M14.9111719,7.36675781 L8.69808594,13.5798047 C8.57167969,13.7062109 8.40363281,13.7758594 8.22488281,13.7758594 C8.04613281,13.7758594 7.87808594,13.70625 7.75167969,13.5798047 L5.08894531,10.9170313 C4.96253906,10.790625 4.89292969,10.6225391 4.89292969,10.4437891 C4.89292969,10.2650391 4.9625,10.0969922 5.08894531,9.970625 C5.21535156,9.84417969 5.38347656,9.77453125 5.56222656,9.77453125 C5.7409375,9.77453125 5.90902344,9.84414063 6.03542969,9.97058594 L7.81054688,11.7457813 C7.92042969,11.8556641 8.06945312,11.9174219 8.22484375,11.9174219 C8.38023437,11.9174219 8.52929688,11.8557031 8.63914062,11.7457813 L13.9644922,6.4203125 C14.0908984,6.29394531 14.2590234,6.22429688 14.4378125,6.22429688 C14.6166016,6.22429688 14.7847266,6.29390625 14.9110156,6.42019531 C15.1720312,6.68121094 15.1720312,7.10582031 14.9111719,7.36675781 Z" id="Shape"></path>
                    </g>
                </g>
            </g>
        </g>
    </g>
</svg>