<?xml version="1.0" encoding="UTF-8"?>
<svg width="66px" height="66px" viewBox="0 0 66 66" version="1.1" xmlns="http://www.w3.org/2000/svg" xmlns:xlink="http://www.w3.org/1999/xlink">
    <!-- Generator: Sketch 55.2 (78181) - https://sketchapp.com -->
    <title>f-ogo_RGB_HEX-58</title>
    <desc>Created with Sketch.</desc>
    <defs>
        <circle id="path-1" cx="33" cy="33" r="33"></circle>
    </defs>
    <g id="UPDATES" stroke="none" stroke-width="1" fill="none" fill-rule="evenodd">
        <g id="EYELEVEL-FOR-ADVERTISERS-INTERCOM" transform="translate(-384.000000, -1212.000000)">
            <g id="f-ogo_RGB_HEX-58" transform="translate(384.000000, 1212.000000)">
                <mask id="mask-2" fill="white">
                    <use xlink:href="#path-1"></use>
                </mask>
                <use id="Mask" fill="#4267B2" xlink:href="#path-1"></use>
                <g mask="url(#mask-2)" fill-rule="nonzero">
                    <g transform="translate(-9.000000, 2.000000)">
                        <path d="M62.3586207,0 L3.64137931,0 C1.63030105,0 0,1.63030105 0,3.64137931 L0,62.3586207 C0,64.369699 1.63030105,66 3.64137931,66 L35.2758621,66 L35.2758621,40.4762069 L26.6844828,40.4762069 L26.6844828,30.4851724 L35.2758621,30.4851724 L35.2758621,23.1341379 C35.2758621,14.6110345 40.4875862,9.96827586 48.0889655,9.96827586 C50.6505322,9.96268957 53.21062,10.0918335 55.7586207,10.3551724 L55.7586207,19.2651724 L50.5241379,19.2651724 C46.382069,19.2651724 45.5741379,21.2224138 45.5741379,24.1127586 L45.5741379,30.4737931 L55.4741379,30.4737931 L54.1882759,40.4648276 L45.5172414,40.4648276 L45.5172414,66 L62.3586207,66 C64.369699,66 66,64.369699 66,62.3586207 L66,3.64137931 C66,1.63030105 64.369699,0 62.3586207,0 Z" id="Path" fill="#4267B2"></path>
                        <path d="M45.7847358,66 L45.7847358,40.4907485 L54.376908,40.4907485 L55.6594912,30.5054062 L45.7847358,30.5054062 L45.7847358,24.1479958 C45.7847358,21.2592977 46.5906067,19.3031714 50.7221135,19.3031714 L56,19.3031714 L56,10.3868749 C53.454731,10.1232874 50.8973722,9.99421653 48.3385519,10 C40.7452055,10 35.5694716,14.6403123 35.5694716,23.1585598 L35.5694716,30.5054062 L27,30.5054062 L27,40.4907485 L35.5694716,40.4907485 L35.5694716,66 L45.7847358,66 Z" id="f" fill="#FFFFFF"></path>
                    </g>
                </g>
            </g>
        </g>
    </g>
</svg>