<?xml version="1.0" encoding="UTF-8"?>
<svg width="90px" height="74px" viewBox="0 0 90 74" version="1.1" xmlns="http://www.w3.org/2000/svg" xmlns:xlink="http://www.w3.org/1999/xlink">
    <!-- Generator: Sketch 55.2 (78181) - https://sketchapp.com -->
    <title>Group 18</title>
    <desc>Created with Sketch.</desc>
    <g id="design" stroke="none" stroke-width="1" fill="none" fill-rule="evenodd">
        <g id="EYELEVEL-FOR-ENTERPRISE-design-v1" transform="translate(-630.000000, -1550.000000)" fill="#8896A7" fill-rule="nonzero">
            <g id="Group-18" transform="translate(630.000000, 1550.922300)">
                <path d="M65.442,-1.0658141e-13 L5.068,-1.0658141e-13 C2.2734,-1.0658141e-13 -7.10542736e-15,2.2734 -7.10542736e-15,5.0678 L-7.10542736e-15,41.2887 C-7.10542736e-15,44.0831 2.2734,46.3566 5.068,46.3566 L8.9828,46.3566 L8.9828,59.8407 C8.9828,60.6997 9.4999,61.4737 10.2934,61.8027 C10.556,61.9117 10.832,61.9637 11.1055,61.9637 C11.6582,61.9637 12.201,61.7487 12.6072,61.3417 L27.5928,46.3568 L30.5994,46.3568 C31.772,46.3568 32.7224,45.4064 32.7224,44.2337 C32.7224,43.0609 31.7716,42.1105 30.5994,42.1105 C30.5994,42.1105 26.6109,42.1133 26.5692,42.1175 C26.0749,42.1511 25.5898,42.3546 25.2118,42.7324 L13.229,54.7157 C13.229,54.7157 13.2253,44.0994 13.2184,44.0444 C13.1226,42.9605 12.2135,42.1105 11.1048,42.1105 L5.068,42.1105 C4.6148,42.1105 4.2464,41.7418 4.2464,41.2888 L4.2464,5.0678 C4.2464,4.6147 4.615,4.2462 5.068,4.2462 L65.442,4.2462 C65.895,4.2462 66.263,4.6148 66.263,5.0678 L66.263,18.9642 C66.263,20.1369 67.214,21.0873 68.386,21.0873 C69.559,21.0873 70.51,20.1369 70.51,18.9642 L70.51,5.0678 C70.51,2.2734 68.236,-1.0658141e-13 65.442,-1.0658141e-13 Z" id="Path"></path>
                <path d="M84.932,25.9689 L42.6717,25.9689 C39.8773,25.9689 37.6037,28.2423 37.6037,31.0369 L37.6037,55.7467 C37.6037,58.5407 39.8771,60.8147 42.6717,60.8147 L69.129,60.8147 L79.848,71.5337 C80.255,71.9397 80.798,72.1557 81.35,72.1557 C81.624,72.1557 81.9,72.1027 82.162,71.9937 C82.955,71.6647 83.473,70.8907 83.473,70.0327 L83.473,60.8147 L84.932,60.8147 C87.726,60.8147 90,58.5407 90,55.7467 L90,31.0367 C90,28.2423 87.727,25.9689 84.932,25.9689 Z M85.754,55.7467 C85.754,56.1997 85.385,56.5677 84.932,56.5677 L81.351,56.5677 C80.233,56.5677 79.32,57.4317 79.236,58.5277 C79.23,58.5737 79.227,64.9067 79.227,64.9067 L71.518,57.1977 C71.51,57.1897 71.502,57.1817 71.494,57.1737 C71.463,57.1447 71.435,57.1187 71.408,57.0957 C71.034,56.7677 70.546,56.5677 70.01,56.5677 L42.6717,56.5677 C42.2185,56.5677 41.8501,56.1997 41.8501,55.7467 L41.8501,31.0367 C41.8501,30.5836 42.2187,30.2151 42.6717,30.2151 L84.932,30.2151 C85.385,30.2151 85.754,30.5837 85.754,31.0367 L85.754,55.7467 L85.754,55.7467 Z" id="Shape"></path>
                <path d="M63.802,41.2686 C62.63,41.2686 61.679,42.2198 61.679,43.3917 C61.679,44.5636 62.63,45.5148 63.802,45.5148 C64.975,45.5148 65.925,44.5636 65.925,43.3917 C65.925,42.2198 64.974,41.2686 63.802,41.2686 Z" id="Path"></path>
                <path d="M54.5753,14.0367 L15.9346,14.0367 C14.7622,14.0367 13.8115,14.9872 13.8115,16.1598 C13.8115,17.3325 14.7623,18.2829 15.9346,18.2829 L54.5753,18.2829 C55.7477,18.2829 56.6984,17.3325 56.6984,16.1598 C56.6984,14.9872 55.7477,14.0367 54.5753,14.0367 Z" id="Path"></path>
                <path d="M30.5992,28.0736 L15.9346,28.0736 C14.7622,28.0736 13.8115,29.024 13.8115,30.1967 C13.8115,31.3693 14.7623,32.3198 15.9346,32.3198 L30.5992,32.3198 C31.7718,32.3198 32.7223,31.3693 32.7223,30.1967 C32.7223,29.024 31.7717,28.0736 30.5992,28.0736 Z" id="Path"></path>
                <path d="M53.9363,41.2686 C52.7645,41.2686 51.8132,42.2198 51.8132,43.3917 C51.8132,44.5636 52.7645,45.5148 53.9363,45.5148 C55.1084,45.5148 56.0594,44.5636 56.0594,43.3917 C56.0594,42.2198 55.1084,41.2686 53.9363,41.2686 Z" id="Path"></path>
                <path d="M73.666,41.2686 C72.494,41.2686 71.543,42.2198 71.543,43.3917 C71.543,44.5636 72.494,45.5148 73.666,45.5148 C74.838,45.5148 75.789,44.5636 75.789,43.3917 C75.789,42.2198 74.838,41.2686 73.666,41.2686 Z" id="Path"></path>
            </g>
        </g>
    </g>
</svg>