<?xml version="1.0" encoding="UTF-8"?>
<svg width="90px" height="90px" viewBox="0 0 90 90" version="1.1" xmlns="http://www.w3.org/2000/svg" xmlns:xlink="http://www.w3.org/1999/xlink">
    <!-- Generator: Sketch 55.2 (78181) - https://sketchapp.com -->
    <title>Group</title>
    <desc>Created with Sketch.</desc>
    <g id="design" stroke="none" stroke-width="1" fill="none" fill-rule="evenodd">
        <g id="EYELEVEL-FOR-ENTERPRISE-design-v1" transform="translate(-115.000000, -1534.000000)" fill-rule="nonzero">
            <g id="conversation" transform="translate(80.000000, 1499.000000)">
                <g id="Group" transform="translate(35.000000, 35.000000)">
                    <path d="M31.943,64.479 C31.8159,64.4428 31.6858,64.4224 31.5548,64.4154 C33.4804,62.3916 34.6662,59.6577 34.6662,56.6504 L34.6662,47.4024 C34.6662,47.3179 34.6581,47.2354 34.6467,47.1542 C34.6583,46.9872 34.6662,46.8192 34.6662,46.6494 L34.6662,40.7983 C34.6662,39.8275 33.8792,39.0405 32.9084,39.0405 L21.1182,39.0405 C16.1532,39.0405 12.1141,43.0798 12.1141,48.0445 L12.1141,56.6504 C12.1141,59.6577 13.2998,62.3916 15.2255,64.4154 C15.0947,64.4224 14.9646,64.4428 14.8377,64.479 C6.5308,65.231 0,72.233 0,80.732 L0,88.242 C0,89.213 0.787,90 1.7578,90 L45.0223,90 C45.9932,90 46.7801,89.213 46.7801,88.242 L46.7801,80.732 C46.7801,72.233 40.2497,65.231 31.943,64.479 Z M15.6298,50.2736 L15.6298,48.0444 C15.6298,45.0181 18.0919,42.5559 21.1182,42.5559 L31.1505,42.5559 L31.1505,46.6492 C31.1505,48.7099 29.4741,50.3863 27.4134,50.3863 L15.6298,50.3863 L15.6298,50.2736 Z M15.6298,53.9019 L27.4134,53.9019 C28.7796,53.9019 30.0584,53.5219 31.1505,52.8624 L31.1505,56.6503 C31.1505,60.9293 27.6692,64.4107 23.3902,64.4107 C19.1111,64.4107 15.6298,60.9293 15.6298,56.6503 L15.6298,53.9019 Z M27.216,67.926 L23.3902,71.753 L19.5643,67.926 L27.216,67.926 Z M43.2647,86.484 L3.5156,86.484 L3.5156,82.969 L10.8105,82.969 C11.7814,82.969 12.5684,82.182 12.5684,81.211 C12.5684,80.24 11.7814,79.453 10.8105,79.453 L3.5798,79.453 C4.1702,73.527 8.8191,68.78 14.6988,68.033 L22.1472,75.481 C22.4768,75.811 22.924,75.996 23.3902,75.996 C23.8563,75.996 24.3035,75.811 24.6331,75.481 L32.0815,68.033 C38.3787,68.833 43.2647,74.221 43.2647,80.732 L43.2647,86.484 Z" id="Shape" fill="#8896A7"></path>
                    <path d="M75.163,25.4387 C75.036,25.4025 74.906,25.3821 74.775,25.3751 C76.7,23.3513 77.886,20.6174 77.886,17.6101 L77.886,8.3619 C77.886,8.2774 77.878,8.1949 77.866,8.1137 C77.878,7.9467 77.886,7.7787 77.886,7.6089 L77.886,1.7578 C77.886,0.787 77.099,0 76.128,0 L64.3379,0 C59.3729,0 55.3338,4.0393 55.3338,9.004 L55.3338,17.6099 C55.3338,20.6172 56.5195,23.3511 58.445,25.3749 C58.314,25.3819 58.1836,25.4023 58.0565,25.4385 C49.75,26.1911 43.2197,33.1926 43.2197,41.6916 L43.2197,49.2015 C43.2197,50.1724 44.0067,50.9595 44.9775,50.9595 L59.1209,50.9595 C60.0917,50.9595 60.8787,50.1724 60.8787,49.2015 C60.8787,48.2307 60.0917,47.4437 59.1209,47.4437 L46.7353,47.4437 L46.7353,41.6918 C46.7353,35.1807 51.6211,29.7928 57.9183,28.9925 L65.367,36.4409 C65.71,36.7842 66.16,36.9557 66.61,36.9557 C67.059,36.9557 67.509,36.7842 67.853,36.4409 L75.301,28.9925 C81.599,29.793 86.484,35.1807 86.484,41.6918 L86.484,47.4439 L73.535,47.4439 C72.564,47.4439 71.777,48.2309 71.777,49.2017 C71.777,50.1725 72.564,50.9595 73.535,50.9595 L88.242,50.9595 C89.213,50.9595 90,50.1725 90,49.2017 L90,41.6918 C90,33.1928 83.47,26.1912 75.163,25.4387 Z M66.61,32.712 L62.7841,28.8861 L70.436,28.8861 L66.61,32.712 Z M74.37,17.6099 C74.37,21.889 70.889,25.3703 66.61,25.3703 C62.331,25.3703 58.8496,21.8892 58.8496,17.6101 L58.8496,14.8616 L70.633,14.8616 C71.999,14.8616 73.278,14.4814 74.37,13.822 L74.37,17.6099 L74.37,17.6099 Z M74.37,7.6089 C74.37,9.6696 72.694,11.346 70.633,11.346 L58.8496,11.346 L58.8496,11.2333 L58.8496,9.004 C58.8496,5.9778 61.3118,3.5156 64.338,3.5156 L74.37,3.5156 L74.37,7.6089 Z" id="Shape" fill="#8896A7"></path>
                    <path d="M67.853,47.9584 C67.526,47.6314 67.073,47.4434 66.611,47.4434 C66.146,47.4434 65.695,47.6314 65.368,47.9584 C65.039,48.2854 64.8527,48.7389 64.8527,49.2012 C64.8527,49.6652 65.039,50.117 65.368,50.4439 C65.695,50.7727 66.146,50.959 66.611,50.959 C67.073,50.959 67.526,50.7727 67.853,50.4439 C68.18,50.117 68.368,49.6652 68.368,49.2012 C68.368,48.7389 68.18,48.2854 67.853,47.9584 Z" id="Path" fill-opacity="0.51" fill="#405264"></path>
                    <path d="M47.0048,24.5969 L39.6534,17.2455 L39.6534,8.7891 C39.6534,3.9428 35.7107,0 30.8644,0 L8.7891,0 C3.9428,0 0,3.9428 0,8.7891 L0,24.2578 C0,29.1041 3.9428,33.0469 8.7891,33.0469 L30.8642,33.0469 C34.4983,33.0469 37.6673,30.866 38.9969,27.5977 L45.7617,27.5977 C46.4725,27.5977 47.1136,27.1693 47.3857,26.5126 C47.6578,25.8558 47.5073,25.0996 47.0048,24.5969 Z M37.7146,24.082 C36.8956,24.082 36.1851,24.6475 36.0014,25.4457 C35.448,27.8511 33.3357,29.5312 30.8642,29.5312 L8.7891,29.5312 C5.8813,29.5312 3.5156,27.1656 3.5156,24.2578 L3.5156,8.7891 C3.5156,5.8813 5.8813,3.5156 8.7891,3.5156 L30.8642,3.5156 C33.772,3.5156 36.1376,5.8813 36.1376,8.7891 L36.1376,17.9736 C36.1376,18.4398 36.3229,18.887 36.6525,19.2166 L41.5179,24.082 L37.7146,24.082 Z" id="Shape" fill="#8896A7"></path>
                    <path d="M81.211,56.9531 L59.1358,56.9531 C55.5017,56.9531 52.3327,59.134 51.0031,62.4023 L44.2383,62.4023 C43.5275,62.4023 42.8864,62.8307 42.6143,63.4874 C42.3422,64.1442 42.4927,64.9004 42.9952,65.403 L50.3466,72.754 L50.3466,81.211 C50.3466,86.057 54.2893,90 59.1356,90 L81.211,90 C86.057,90 90,86.057 90,81.211 L90,65.742 C90,60.8959 86.057,56.9531 81.211,56.9531 Z M86.484,81.211 C86.484,84.119 84.119,86.484 81.211,86.484 L59.1358,86.484 C56.228,86.484 53.8624,84.119 53.8624,81.211 L53.8624,72.026 C53.8624,71.56 53.6771,71.113 53.3475,70.783 L48.4821,65.918 L52.2854,65.918 C53.1044,65.918 53.8149,65.352 53.9986,64.5543 C54.552,62.1489 56.6643,60.4688 59.1358,60.4688 L81.211,60.4688 C84.119,60.4688 86.484,62.8344 86.484,65.742 L86.484,81.211 Z" id="Shape" fill="#8896A7"></path>
                    <path d="M78.074,68.799 C77.388,68.113 76.275,68.113 75.589,68.799 L70.916,73.472 L68.743,71.299 C68.057,70.613 66.943,70.613 66.257,71.299 C65.57,71.986 65.57,73.099 66.257,73.785 L69.673,77.201 C70.016,77.544 70.466,77.716 70.916,77.716 C71.365,77.716 71.815,77.544 72.159,77.201 L78.074,71.285 C78.761,70.599 78.761,69.486 78.074,68.799 Z" id="Path" fill="#8896A7"></path>
                    <path d="M27.8179,11.6487 C27.6101,8.6346 25.1805,6.2049 22.1664,5.9972 C20.4572,5.8796 18.8281,6.4561 17.5801,7.6212 C16.3494,8.7699 15.6435,10.3941 15.6435,12.0771 C15.6437,13.0481 16.4306,13.8351 17.4015,13.8351 C18.3723,13.8351 19.1593,13.0481 19.1593,12.0773 C19.1593,11.3546 19.4504,10.6849 19.9791,10.1913 C20.507,9.6984 21.1987,9.4537 21.9248,9.5047 C23.1973,9.5924 24.223,10.6181 24.3107,11.8906 C24.3995,13.1771 23.5561,14.3141 22.3054,14.5939 C20.9364,14.9001 19.9803,16.0903 19.9803,17.4881 L19.9803,18.4259 C19.9803,19.3968 20.7673,20.1838 21.7382,20.1838 C22.709,20.1838 23.496,19.3968 23.496,18.4259 L23.496,17.9144 C26.2195,17.102 28.0169,14.5343 27.8179,11.6487 Z" id="Path" fill="#8896A7"></path>
                    <path d="M22.9816,23.9098 C22.6547,23.5828 22.2012,23.3947 21.7389,23.3947 C21.2748,23.3947 20.823,23.5828 20.4961,23.9098 C20.1674,24.2367 19.9811,24.6902 19.9811,25.1525 C19.9811,25.6148 20.1674,26.0684 20.4961,26.3953 C20.823,26.7223 21.2748,26.9104 21.7389,26.9104 C22.2012,26.9104 22.6547,26.7223 22.9816,26.3953 C23.3086,26.0684 23.4967,25.6148 23.4967,25.1525 C23.4967,24.6902 23.3086,24.2367 22.9816,23.9098 Z" id="Path" fill="#8896A7"></path>
                    <path d="M19.0846,79.968 C18.7576,79.641 18.3041,79.453 17.8418,79.453 C17.3795,79.453 16.926,79.641 16.599,79.968 C16.2721,80.295 16.084,80.749 16.084,81.211 C16.084,81.673 16.2721,82.127 16.599,82.454 C16.926,82.781 17.3795,82.969 17.8418,82.969 C18.3041,82.969 18.7576,82.781 19.0846,82.454 C19.4115,82.127 19.5996,81.673 19.5996,81.211 C19.5996,80.749 19.4115,80.295 19.0846,79.968 Z" id="Path" fill-opacity="0.51" fill="#405264"></path>
                </g>
            </g>
        </g>
    </g>
</svg>