<?xml version="1.0" encoding="UTF-8"?>
<svg width="70px" height="36px" viewBox="0 0 70 36" version="1.1" xmlns="http://www.w3.org/2000/svg" xmlns:xlink="http://www.w3.org/1999/xlink">
    <!-- Generator: Sketch 55.2 (78181) - https://sketchapp.com -->
    <title>Group 6</title>
    <desc>Created with Sketch.</desc>
    <g id="UPDATES" stroke="none" stroke-width="1" fill="none" fill-rule="evenodd">
        <g id="EYELEVEL-FOR-ADVERTISERS-INTERCOM" transform="translate(-370.000000, -820.000000)" fill="#374050" fill-rule="nonzero">
            <g id="Group-6" transform="translate(370.000000, 820.000000)">
                <path d="M67.5407526,14.5531285 L67.6090452,14.5678798 L38.3335435,14.5678798 L47.5366919,5.46040857 C47.9873524,5.01576476 48.2345576,4.41342343 48.2345576,3.78122844 C48.2345576,3.14903346 47.9873524,2.55090676 47.5366919,2.1052093 L46.10468,0.690497411 C45.6543752,0.245853605 45.0543245,1.0658141e-13 44.4144365,1.0658141e-13 C43.7741927,1.0658141e-13 43.1737863,0.244097508 42.7234816,0.688741313 L26.9475195,16.2649721 C26.4954363,16.711372 26.2482311,17.3059865 26.25,17.9385327 C26.2482311,18.5745911 26.4954363,19.1695568 26.9475195,19.6152543 L42.7234816,35.1928899 C43.1737863,35.6371825 43.773837,35.8816312 44.4144365,35.8816312 C45.0543245,35.8816312 45.6543752,35.6368313 46.10468,35.1928899 L47.5366919,33.778178 C47.9873524,33.3342366 48.2345576,32.7413782 48.2345576,32.1091833 C48.2345576,31.4773395 47.9873524,30.9157396 47.5366919,30.471447 L38.2296817,21.313049 L67.5734761,21.313049 C68.8920226,21.313049 70,20.1909029 70,18.8896349 L70,16.8887378 C70,15.5874698 68.859299,14.5531285 67.5407526,14.5531285 Z" id="Path-Copy" transform="translate(48.125000, 17.940816) scale(-1, 1) translate(-48.125000, -17.940816) "></path>
                <path d="M41.2907526,14.5531285 L41.3590452,14.5678798 L12.0835435,14.5678798 L21.2866919,5.46040857 C21.7373524,5.01576476 21.9845576,4.41342343 21.9845576,3.78122844 C21.9845576,3.14903346 21.7373524,2.55090676 21.2866919,2.1052093 L19.85468,0.690497411 C19.4043752,0.245853605 18.8043245,1.0658141e-13 18.1644365,1.0658141e-13 C17.5241927,1.0658141e-13 16.9237863,0.244097508 16.4734816,0.688741313 L0.69751954,16.2649721 C0.245436305,16.711372 -0.00176892545,17.3059865 0,17.9385327 C-0.00176892545,18.5745911 0.245436305,19.1695568 0.69751954,19.6152543 L16.4734816,35.1928899 C16.9237863,35.6371825 17.523837,35.8816312 18.1644365,35.8816312 C18.8043245,35.8816312 19.4043752,35.6368313 19.85468,35.1928899 L21.2866919,33.778178 C21.7373524,33.3342366 21.9845576,32.7413782 21.9845576,32.1091833 C21.9845576,31.4773395 21.7373524,30.9157396 21.2866919,30.471447 L11.9796817,21.313049 L41.3234761,21.313049 C42.6420226,21.313049 43.75,20.1909029 43.75,18.8896349 L43.75,16.8887378 C43.75,15.5874698 42.609299,14.5531285 41.2907526,14.5531285 Z" id="Path-Copy-2"></path>
            </g>
        </g>
    </g>
</svg>