<?xml version="1.0" encoding="UTF-8"?>
<svg width="87px" height="87px" viewBox="0 0 87 87" version="1.1" xmlns="http://www.w3.org/2000/svg" xmlns:xlink="http://www.w3.org/1999/xlink">
    <!-- Generator: Sketch 55.2 (78181) - https://sketchapp.com -->
    <title>Group</title>
    <desc>Created with Sketch.</desc>
    <defs>
        <polygon id="path-1" points="0.00641102666 0.00416966371 54.7071871 0.00416966371 54.7071871 40.4457379 0.00641102666 40.4457379"></polygon>
    </defs>
    <g id="UPDATES" stroke="none" stroke-width="1" fill="none" fill-rule="evenodd">
        <g id="EYELEVEL-FOR-ADVERTISERS-INTERCOM" transform="translate(-467.000000, -798.000000)">
            <g id="Group" transform="translate(468.000000, 799.000000)">
                <path d="M8.91221933,2.04819277 L80.0330192,2.04819277 C81.9576252,3.02306525 82.9199281,8.99130248 82.9199281,19.9529045 C82.9199281,30.9145065 81.9576252,45.1618385 80.0330192,62.6949007 L33.9351939,63.6569912 L15.2487272,83.0461878 L15.2487272,65.4720382 L4.09638554,58.3354904 L3.07228916,5.48456929 L8.91221933,2.04819277 Z" id="Path-2" fill="#FFFFFF" fill-rule="nonzero"></path>
                <path d="M72.0651684,3.69559192 C77.1578892,3.69559192 81.3044081,7.83847294 81.3044081,12.9348316 L81.3044081,53.5868624 C81.3044081,58.683221 77.1578892,62.826102 72.0651684,62.826102 L31.4131376,62.826102 C30.9215007,62.826102 30.452211,63.021856 30.1048776,63.3655514 L14.7827141,78.691526 L14.7827141,64.6738114 C14.7827141,63.6538121 13.9548309,62.826102 12.9348316,62.826102 C7.84228407,62.826102 3.69576515,58.683221 3.69576515,53.5868624 L3.69576515,12.9348316 C3.69576515,7.83847294 7.84228407,3.69559192 12.9348316,3.69559192 L72.0651684,3.69559192 Z M12.9348316,85 C12.6983677,85 12.4580928,84.9518411 12.2289047,84.8595076 C11.537876,84.5748848 11.086949,83.8985809 11.086949,83.1521174 L11.086949,66.3922885 C4.82663395,65.4906077 0,60.0912635 0,53.5868624 L0,12.9348316 C0,5.80211223 5.80228546,0 12.9348316,0 L72.0651684,0 C79.1978878,0 85,5.80211223 85,12.9348316 L85,53.5868624 C85,60.7195817 79.1978878,66.5216939 72.0651684,66.5216939 L32.1781371,66.5216939 L14.2430915,84.4603774 C13.8883092,84.8115219 13.4152083,85 12.9348316,85 Z" id="Fill-1-Copy-9" stroke="#374050" stroke-width="0.78" fill="#374050" stroke-linecap="round" stroke-linejoin="round"></path>
                <g id="eye-copy-14" transform="translate(13.825301, 14.849398)">
                    <mask id="mask-2" fill="white">
                        <use xlink:href="#path-1"></use>
                    </mask>
                    <g id="Clip-3"></g>
                    <path d="M30.7761207,19.9401414 C30.7761207,21.8605839 29.2037854,23.417338 27.2643226,23.417338 C25.3247699,23.417338 23.7525245,21.8605839 23.7525245,19.9401414 C23.7525245,18.019788 25.3247699,16.4629448 27.2643226,16.4629448 C29.2037854,16.4629448 30.7761207,18.019788 30.7761207,19.9401414 Z" id="Fill-1" fill="#374050" mask="url(#mask-2)"></path>
                    <path d="M27.4617396,12.5097208 C23.1019209,12.5097208 19.5550204,15.9700205 19.5550204,20.2233902 C19.5550204,24.4767599 23.1019209,27.9370595 27.4617396,27.9370595 C31.8215582,27.9370595 35.3684587,24.4767599 35.3684587,20.2233902 C35.3684587,15.9700205 31.8215582,12.5097208 27.4617396,12.5097208 Z M27.4617396,32.106619 C20.7452275,32.106619 15.2811094,26.7759124 15.2811094,20.2233902 C15.2811094,13.6709721 20.7452275,8.34016134 27.4617396,8.34016134 C34.1781448,8.34016134 39.6423697,13.6709721 39.6423697,20.2233902 C39.6423697,26.7759124 34.1781448,32.106619 27.4617396,32.106619 L27.4617396,32.106619 Z" id="Fill-2" fill="#6897CD" mask="url(#mask-2)"></path>
                    <path d="M27.4015828,40.4457379 C21.826554,40.4457379 16.3126436,38.4972541 11.0129684,34.6543878 C5.77857888,30.8588471 2.55137491,26.5007146 1.40679295,24.8030361 C-0.4689666,22.0210364 -0.4689666,18.4258482 1.40679295,15.64364 C2.55137491,13.94617 5.77857888,9.58793321 11.0129684,5.79249682 C16.3126436,1.94963051 21.8266608,0.00104241593 27.4015828,0.00104241593 C32.9843048,0.00104241593 38.4935137,1.95494683 43.7759859,5.8082373 C48.987189,9.60951122 52.1887488,13.9731685 53.3232869,15.6728277 C55.1684872,18.4372105 55.1684872,22.0096741 53.3232869,24.7739527 C52.6791924,25.7389171 51.3552085,26.0116131 50.3663077,25.383349 C49.3772999,24.7549807 49.0977792,23.4634274 49.74166,22.4986714 C50.6643135,21.1165321 50.6643135,19.3303525 49.74166,17.9483174 C46.3257581,12.8310976 37.7765472,4.17070612 27.4013691,4.17070612 C17.0257635,4.17070612 8.42408903,12.8227583 4.97720055,17.935183 C4.03990845,19.3252446 4.03990845,21.12164 4.97720055,22.5117016 C8.42408903,27.6241263 17.0257635,36.2762827 27.4013691,36.2762827 C34.5863135,36.2762827 40.5239927,32.2214932 44.2399306,28.8198816 C45.1005041,28.0320236 46.4528033,28.0739288 47.2604858,28.913699 C48.0680614,29.7533651 48.0250007,31.0726467 47.1643204,31.8605046 C42.8860286,35.7769655 35.9843447,40.4457379 27.4015828,40.4457379" id="Fill-4" fill="#6897CD" mask="url(#mask-2)"></path>
                </g>
            </g>
        </g>
    </g>
</svg>