<?xml version="1.0" encoding="UTF-8"?>
<svg width="255px" height="133px" viewBox="0 0 255 133" version="1.1" xmlns="http://www.w3.org/2000/svg" xmlns:xlink="http://www.w3.org/1999/xlink">
    <!-- Generator: Sketch 55.2 (78181) - https://sketchapp.com -->
    <title>Group 5 Copy 2</title>
    <desc>Created with Sketch.</desc>
    <g id="UPDATES" stroke="none" stroke-width="1" fill="none" fill-rule="evenodd">
        <g id="EYELEVEL-FOR-ADVERTISERS-INTERCOM" transform="translate(-281.000000, -974.000000)" fill="#D8D8D8">
            <g id="Group-5-Copy-2" transform="translate(281.000000, 974.000000)">
                <rect id="Rectangle-Copy-12" x="0.539363097" y="99.2751947" width="76.1431105" height="32.7704526" rx="9.63836842"></rect>
                <rect id="Rectangle-Copy-13" x="90.1761894" y="99.2751947" width="76.1431105" height="32.7704526" rx="9.63836842"></rect>
                <rect id="Rectangle-Copy-14" x="178.849179" y="99.2751947" width="76.1431105" height="32.7704526" rx="9.63836842"></rect>
                <path id="Line-3-Copy-4" d="M127.918112,88.1765347 L127.918112,51.7657491 L129.44483,51.7657491 L129.44483,88.1765347 L134.498265,88.1765347 L128.681471,100.176535 L122.864677,88.1765347 L127.918112,88.1765347 Z" fill-rule="nonzero"></path>
                <path id="Line-3-Copy-5" d="M191.772245,90.0616885 L177.807074,65.7409553 L179.131047,64.9807184 L193.096219,89.3014516 L197.478571,86.7850673 L198.409694,100.088003 L187.389892,92.5780727 L191.772245,90.0616885 Z" fill-rule="nonzero"></path>
                <path id="Line-3-Copy-6" d="M60.3417735,87.6605391 L70.5159582,65.0136828 L71.9085934,65.6393293 L61.7344087,88.2861857 L66.3440313,90.3570758 L56.1205091,98.9194752 L55.7321509,85.5896489 L60.3417735,87.6605391 Z" fill-rule="nonzero"></path>
                <g id="Group-15" transform="translate(42.948184, 0.000000)" fill-rule="nonzero">
                    <path d="M9.63836842,0 L159.996916,0 C165.32004,1.14294525e-14 169.635284,4.31524453 169.635284,9.63836842 L169.635284,61.6855579 C169.635284,67.0086818 165.32004,71.3239263 159.996916,71.3239263 L9.63836842,71.3239263 C4.31524453,71.3239263 -4.67717585e-15,67.0086818 0,61.6855579 L0,9.63836842 C-2.4282515e-15,4.31524453 4.31524453,2.75419883e-15 9.63836842,0 Z" id="Rectangle-Copy-15"></path>
                </g>
            </g>
        </g>
    </g>
</svg>