<?xml version="1.0" encoding="UTF-8"?>
<svg width="78px" height="78px" viewBox="0 0 78 78" version="1.1" xmlns="http://www.w3.org/2000/svg" xmlns:xlink="http://www.w3.org/1999/xlink">
    <!-- Generator: Sketch 55.2 (78181) - https://sketchapp.com -->
    <title>Group 7</title>
    <desc>Created with Sketch.</desc>
    <g id="UPDATES" stroke="none" stroke-width="1" fill="none" fill-rule="evenodd">
        <g id="EYELEVEL-FOR-ADVERTISERS-INTERCOM" transform="translate(-258.000000, -795.000000)">
            <g id="Group-7" transform="translate(258.000000, 795.000000)">
                <rect id="Rectangle" fill="#FFFFFF" x="0" y="8.4" width="68.4" height="57.6" rx="10.8"></rect>
                <g id="intercom-2" fill="#1F8DED" fill-rule="nonzero">
                    <path d="M67.6001016,42.8841562 C67.5846755,44.3091455 66.4251235,45.4562129 65.0000508,45.4562129 C63.5749781,45.4562129 62.415426,44.3091455 62.4,42.8841562 L62.4,19.5 C62.415426,18.0750108 63.5749781,16.9279434 65.0000508,16.9279434 C66.4251235,16.9279434 67.5846755,18.0750108 67.6001016,19.5 L67.6001016,42.8841562 L67.6001016,42.8841562 Z M66.6927422,59.1584297 C66.2908594,59.5024219 56.6593828,67.5845625 39,67.5845625 C21.3409219,67.5845625 11.70975,59.5021172 11.3078672,59.158125 C10.2178263,58.2234242 10.0916578,56.5821417 11.0260313,55.4918203 C11.9582924,54.4033548 13.5957148,54.2749563 14.6862422,55.2048047 C14.8388906,55.3327734 23.4396094,62.3841563 39.0003047,62.3841563 C54.7563047,62.3841563 63.223875,55.2818906 63.3076641,55.2102891 C64.3957031,54.2758125 66.0401016,54.4013438 66.9739687,55.492125 C67.9086648,56.5822277 67.7827596,58.2236341 66.6927422,59.1584297 L66.6927422,59.1584297 Z M10.3998984,19.5 C10.4153245,18.0750108 11.5748765,16.9279434 12.9999492,16.9279434 C14.4250219,16.9279434 15.584574,18.0750108 15.6,19.5 L15.6,42.8841562 C15.584574,44.3091455 14.4250219,45.4562129 12.9999492,45.4562129 C11.5748765,45.4562129 10.4153245,44.3091455 10.3998984,42.8841562 L10.3998984,19.5 L10.3998984,19.5 Z M23.4003047,14.2998984 C23.4220506,12.8795331 24.5796713,11.7394999 26.0002031,11.7394999 C27.4207349,11.7394999 28.5783557,12.8795331 28.6001016,14.2998984 L28.6001016,49.0345781 C28.5783557,50.4549435 27.4207349,51.5949767 26.0002031,51.5949767 C24.5796713,51.5949767 23.4220506,50.4549435 23.4003047,49.0345781 L23.4003047,14.3002031 L23.4003047,14.2998984 Z M36.4001015,12.9842578 C36.4000207,12.2946971 36.6739119,11.6333558 37.1615049,11.1457627 C37.649098,10.6581697 38.3104393,10.3843593 39,10.3843593 C39.6896135,10.3843593 40.3510331,10.6580532 40.8386921,11.145655 C41.326351,11.6332568 41.600284,12.2946443 41.6002031,12.9842578 L41.6002031,50.6841563 C41.5847771,52.1091455 40.425225,53.2562129 39.0001523,53.2562129 C37.5750796,53.2562129 36.4155276,52.1091455 36.4001015,50.6841563 L36.4001015,12.9842578 L36.4001015,12.9842578 Z M49.4002031,14.2998984 C49.421949,12.8795331 50.5795698,11.7394999 52.0001016,11.7394999 C53.4206334,11.7394999 54.5782541,12.8795331 54.6,14.2998984 L54.6,49.0345781 C54.5782541,50.4549435 53.4206334,51.5949767 52.0001016,51.5949767 C50.5795698,51.5949767 49.421949,50.4549435 49.4002031,49.0345781 L49.4002031,14.3002031 L49.4002031,14.2998984 Z M68.25,0 L9.75,0 C4.36525781,0 0,4.36525781 0,9.75 L0,68.25 C0,73.6344375 4.36525781,78 9.75,78 L68.25,78 C73.6347422,78 78,73.6344375 78,68.25 L78,9.75 C78,4.36525781 73.6347422,0 68.25,0 Z" id="Shape"></path>
                </g>
            </g>
        </g>
    </g>
</svg>