<?xml version="1.0" encoding="UTF-8"?>
<svg width="65px" height="65px" viewBox="0 0 65 65" version="1.1" xmlns="http://www.w3.org/2000/svg" xmlns:xlink="http://www.w3.org/1999/xlink">
    <!-- Generator: Sketch 55.2 (78181) - https://sketchapp.com -->
    <title>messenger</title>
    <desc>Created with Sketch.</desc>
    <defs>
        <polygon id="path-1" points="0.0076171875 0.12039716 65 0.12039716 65 65 0.0076171875 65"></polygon>
    </defs>
    <g id="UPDATES" stroke="none" stroke-width="1" fill="none" fill-rule="evenodd">
        <g id="EYELEVEL-FOR-ADVERTISERS-INTERCOM" transform="translate(-556.000000, -1215.000000)">
            <g id="messenger" transform="translate(556.000000, 1215.000000)">
                <g id="Group-3">
                    <mask id="mask-2" fill="white">
                        <use xlink:href="#path-1"></use>
                    </mask>
                    <g id="Clip-2"></g>
                    <path d="M32.5,0.126705653 C14.9354004,-0.218947368 0.401044922,13.6826901 0,31.2117836 C0.0458300781,40.1349025 4.00460938,48.5903509 10.833291,54.349883 L10.833291,63.6484308 C10.833291,64.3948538 11.4396191,65 12.1875,65 C12.4412793,65 12.6899805,64.9287914 12.905166,64.7944834 L20.453291,60.0885088 C24.2989551,61.5565205 28.3826563,62.3050975 32.5,62.2968616 C50.0645996,62.6426413 64.5989551,48.7410039 65,31.2117836 C64.5989551,13.6826901 50.0645996,-0.218947368 32.5,0.126705653" id="Fill-1" fill="#0080B9" mask="url(#mask-2)"></path>
                </g>
                <path d="M53.895791,22.2917057 C53.4928418,21.7526998 52.7541016,21.5915302 52.1625,21.9132359 L38.079209,29.5763938 L29.317666,22.0782066 C28.7805273,21.6183918 27.9791992,21.6490546 27.47875,22.1484016 L11.22875,38.3667251 C10.7015137,38.8962281 10.7041797,39.7518713 11.2345898,40.2780799 C11.6587402,40.6988694 12.3091211,40.7921248 12.834834,40.5075439 L26.918125,32.844386 L35.687666,40.3453606 C36.2249316,40.8051754 37.0262598,40.7745127 37.526709,40.2751657 L53.776709,24.0568421 C54.2502441,23.5796686 54.3010254,22.827924 53.895791,22.2917057" id="Fill-4" fill="#F8F6F4"></path>
            </g>
        </g>
    </g>
</svg>