<?xml version="1.0" encoding="UTF-8"?>
<svg width="44px" height="36px" viewBox="0 0 44 36" version="1.1" xmlns="http://www.w3.org/2000/svg" xmlns:xlink="http://www.w3.org/1999/xlink">
    <!-- Generator: Sketch 55.2 (78181) - https://sketchapp.com -->
    <title>Path Copy</title>
    <desc>Created with Sketch.</desc>
    <g id="UPDATES" stroke="none" stroke-width="1" fill="none" fill-rule="evenodd">
        <g id="EYELEVEL-FOR-ADVERTISERS-INTERCOM" transform="translate(-313.000000, -1227.000000)" fill="#D3D5D9" fill-rule="nonzero">
            <path d="M354.5267,1241.60114 L354.595383,1241.61594 L325.152592,1241.61594 L334.40833,1232.47842 C334.861566,1232.03231 335.110184,1231.42798 335.110184,1230.7937 C335.110184,1230.15942 334.861566,1229.55932 334.40833,1229.11215 L332.968135,1227.69278 C332.515257,1227.24666 331.911778,1227 331.268233,1227 C330.624331,1227 330.020494,1227.2449 329.567616,1227.69101 L313.701505,1243.31863 C313.246839,1243.7665 312.998221,1244.36308 313,1244.99771 C312.998221,1245.63587 313.246839,1246.23279 313.701505,1246.67996 L329.567616,1262.30899 C330.020494,1262.75474 330.623973,1263 331.268233,1263 C331.911778,1263 332.515257,1262.75439 332.968135,1262.30899 L334.40833,1260.88961 C334.861566,1260.4442 335.110184,1259.84939 335.110184,1259.21511 C335.110184,1258.58118 334.861566,1258.01773 334.40833,1257.57197 L325.048137,1248.38336 L354.55961,1248.38336 C355.885691,1248.38336 357,1247.25751 357,1245.95195 L357,1243.94445 C357,1242.63889 355.852781,1241.60114 354.5267,1241.60114 Z" id="Path-Copy" transform="translate(335.000000, 1245.000000) scale(-1, 1) translate(-335.000000, -1245.000000) "></path>
        </g>
    </g>
</svg>